<svg xmlns:xlink="http://www.w3.org/1999/xlink" xmlns="http://www.w3.org/2000/svg" class="sp-leap" width="81" height="24"><defs><symbol id="sp-leap" viewBox="0 0 67 19">
      <path d="M4.719.001h7.078l-4.13 15.294h4.72L11.797 20H0L4.719.001zm13.566 0H32.44l-1.18 5.294H17.695L18.285 0zm-1.77 7.646h14.156l-1.18 5.294H15.925l.59-5.294zm-1.18 7.059h14.157L28.312 20H14.746l.59-5.294zM38.34 0l-8.258 20h7.079l1.18-2.942H40.7V20h7.078l.59-20h-10.03zm4.13 11.764h-2.95l2.36-7.059h.59v7.059zM66.1.478a3.42 3.42 0 00-1.806-.477H53.678L49.55 20h6.378l1.917-7.686h3.87a6.845 6.845 0 003.982-1.986 7.668 7.668 0 001.364-2.184 8.043 8.043 0 00.774-2.778c.033-.473.27-3.647-1.733-4.888zm-4.51 7.51a3.468 3.468 0 01-1.025.952l-1.628.07.652-5.948a1.822 1.822 0 01.813-.035 2.055 2.055 0 011.18.77 3.65 3.65 0 01.665 2.094 3.65 3.65 0 01-.66 2.096h.003z" fill="#fff"></path>
    </symbol></defs>
                <use xlink:href="#sp-leap"></use>
            </svg>